# xmcd
#
# Track frame offsets:
#	150
#	22235
#	31455
#	52425
#
# Disc length: 931 seconds
#
# Revision: 0
# Processed by: cddbd v1.5.1PL0 Copyright (c) Steve Scherf et al.
# Submitted via: dBpowerAMP V4.0
#
DISCID=3903a104
DTITLE=Bette Midler - Wind Beneath My Wings
DYEAR=1988
DGENRE=Country
TTITLE0=Wind Beneath My Wings
TTITLE1=One More Round
TTITLE2=From A Distance
TTITLE3=The Rose
EXTD=
EXTT0=
EXTT1=
EXTT2=
EXTT3=
PLAYORDER=
